<mxfile host="app.diagrams.net" modified="2023-01-18T00:56:12.775Z" agent="5.0 (Windows NT 10.0; Win64; x64) AppleWebKit/537.36 (KHTML, like Gecko) Chrome/108.0.0.0 Safari/537.36" etag="n9Te8uchD2C7gqDSvETL" version="20.8.5" type="github">
  <diagram name="Page-1" id="5f0bae14-7c28-e335-631c-24af17079c00">
    <mxGraphModel dx="1056" dy="652" grid="1" gridSize="10" guides="1" tooltips="1" connect="1" arrows="1" fold="1" page="1" pageScale="1" pageWidth="1100" pageHeight="850" background="none" math="0" shadow="0">
      <root>
        <mxCell id="0" />
        <mxCell id="1" parent="0" />
        <mxCell id="EzudPVEdrZAm12h7kSyz-16" value="" style="outlineConnect=0;dashed=0;verticalLabelPosition=bottom;verticalAlign=top;align=center;html=1;shape=mxgraph.aws3.virtual_private_cloud;fillColor=#28bd0a;gradientColor=none;" vertex="1" parent="1">
          <mxGeometry x="20" y="40" width="470" height="370" as="geometry" />
        </mxCell>
        <mxCell id="EzudPVEdrZAm12h7kSyz-1" value="EC2 instance with &lt;br&gt;Ubuntu Linux" style="outlineConnect=0;dashed=0;verticalLabelPosition=bottom;verticalAlign=top;align=center;html=1;shape=mxgraph.aws3.ec2;fillColor=#F58534;gradientColor=none;" vertex="1" parent="1">
          <mxGeometry x="80" y="101.13" width="110" height="130" as="geometry" />
        </mxCell>
        <mxCell id="EzudPVEdrZAm12h7kSyz-2" value="RDS - Postgres database&lt;br&gt;" style="outlineConnect=0;dashed=0;verticalLabelPosition=bottom;verticalAlign=top;align=center;html=1;shape=mxgraph.aws3.rds;fillColor=#2E73B8;gradientColor=none;" vertex="1" parent="1">
          <mxGeometry x="343.62" y="138.88" width="72" height="81" as="geometry" />
        </mxCell>
        <mxCell id="EzudPVEdrZAm12h7kSyz-3" value="" style="shape=image;verticalLabelPosition=bottom;labelBackgroundColor=default;verticalAlign=top;aspect=fixed;imageAspect=0;image=data:image/png,iVBORw0KGgoAAAANSUhEUgAAAIgAAAA0CAYAAABRsnBcAAATjklEQVR4nMVdeZAVx3n/9Zu3771d2AvYk+XYZZGW+1iuRUaC2CARS7JlkpSRZJVtXA4hUewokizHxi5TcmxH5Uh24jgpybItmchSIYJtDEilgNBBQEJgWMHCHuzBsWgP2IM93tn5Y97MdPd0z8w7sL+qLd70fN3f193f3TMDuWPOi5SCQgoUAEn+6wEoAEIAmsS3fnscIFUwhmVoyhAIIaByhKyxwIK+ZNRCMBZCtZaydg+49u1JY47MGsqG8NmFg3CIxOzpjQ67D/qm3CThYOiyAmnnCH8i4SCw1pKqO8gGcMKVDMVQsu2X1/1T0fSpcElytW0CJNIjkjYBmTgjpQeSyVhyIC7fHwd4y0FVZo2TZJKChZYBZf4A+34pvYNJnzcIItgFhFKAMlondnTYGF6SLWQKCkJughYT0Wro1AjX6EY3PQGSabDbZlikWOsm3FMYdCfaaUsYs8/EvpAAOAEREDwovcy8i5JsWqJsyoeLkqbmUkSB8kyeu+aEg910mazK2HNxKW68pCrmouuhrJYzwAgIw4lh9jyuM4FpeOxjcVgSDlIBlifHYeS0VIKQeYwi6S9bQ5G+l6UQcOTWg1gK6TVmFOesClJdqKsJqLox/QjY7MFJfTyCsO8cLcJ7YhmtbASrRvjJsiMiEEJ4RIsB+2AC2GRYMEy8QbLP09Ifhw2kEmVxjUHEHfdouwgRmKYss9SzvXDFY3gSXYuZRSYnnarLsPGisjTg00rbZphhWwpZi0hD0UekrZ6hFfcpgahdigjKLEagJ6Oh3xZci823SXt5JsN3JcwCMUMZkzXj6gwthay/2v5RfTNUJjUbQCzhIObv9DI1AsG6ufDqMzVTlr5KQEyrZPfVkH60DcZqGDGPDDFT65EyUyyYri9FHmQJAacADCUqsw4eUh9zLIV1U3SRuxhFbq7eXspotCxYynzTONqEr9KyG3KzimICecc7VEztvIBi/VUxj6wgVjO7GD/51UYcPP05PPKtBuQXBvnxnZZG4rsoWAEhzF86a2z2kRXYMrMctmZqCYd+nW6y550NTwhcYCRcp0lAzJItV8fPmYJiy8NLsHh5OYJBDZseqMNn7q9zHV/Fi9HFxwmFg5Q5WQ/+vjM3KW0hE/sZysgrpSrkd6dSUBjAqtunYuN9tY54Mk/PpZRsYCB0TNvdUelPRVHMuq6akc/dKauYwKOSJE8e2DJQmBiE8HcYTHbZ7SGoGO1YGDI+PAuzIMli1pJuJJSb68cDX5qPp3++Ad//6Z+hflWFV47sqmBFxVkPTClgBqdWm5UEyNLYQwc6OBd76ECHLXimLK8ucSYhgN/mUhQCyp7SShGSEMrV8JcPzcHUGQVy6i4QjcTx0s/O4ErXsORUWBSU1E9p84sC2PL3i5ET0Dzh88tjWQ5KqZK+0e6JN4VLN3TAUkFDPGUZhd7jv5//EKOjMVTPKsK+PS1o/KDHmbYLe5QCfi48NnMpq7OowU4n1zkBDctWV2LtXTMxc1ahM3UHOHLoIq5cHGYdrgWMb2c3IBjSkJ8fwPh4DDeGo2nTNsCuZILl4GoJydVg1rKoOASfRjA4MI54zGEnWEKKBGNiQQDBkIbhoQjC4/Ekjl2TI+EEXvnlGfkgTqAIiiko/DZGASWjAKPJwq4Fgz4sWVGOSSWhrISK3GMD3A3rZ96EHKz5+DRsenAOauuKkRPQEI8l0HLuGg7suYD9/9OK0RFdWFbdPhXr76lBKFeD5rdi84X1Jdj+1JokTYonH38HAFAzuwgPfnmBiff679pw+oMebPz0LHzqs7ei88Igtn/lMGDk34Rg2sx8bLyvFnfeOwtllbr/HxmO4P3/68ZLP/sQvVdHsfXRenMOe3e14MSxbuRNzMFDf70QpeV6n8tdQ9jzcjNWr6vC5i/Mw/RqXdmikQSaPuzDzmcb8d47lxGJxLk1W3FbJTZ+uhbG7vziJ6fQ1T5oX1xV5CssMQFhBEQCYuVOFogSEPgDBPUNlSieEnIaLiUwD/8on9IaEAxp2P7UGjTcPpXbcM3vQ938Kbhl7mRsuKcaT2w7iOv945hRU4gN99TY6FRU5aOiSg/uEglLQCZNyeXwL3UOYfMX5mPJynL4fARXL49YphTA8tUV+Mb3PobJpXlcID0hP4C1G2Zg6cpy7HqxiRvzD+9fxYlj3QgENKxeNw01s4sAAFcuDWPZbZWYt6gEPp81WE7Ah4VLS1H3zFoce+cyvv3IYYTHY+b96dUF2HCvNf6eX5+3BETiHdh2c585D0ElaW4SRMHihYxhOujD0pUVuuXIYpbJltNlrnz93TVYfUeVKRyUUoTH40gkdGSfj2DuohJseXgxt8ieaEva1t9dg/qGCmssJjavnl2ER7/TgClleco1KCgM4ot/t9gT/cqqfCxYUqrkOxDUsObj0/HEd29DwGMsJXXXkmvRQ1hBqsSk21yrMFpOQMPy1ZUommxYjptZxdTF35Dw1eumwadZ9P7te8dx/Gg3pk7Lx2M7VsFHCH75H6fx9sEuUEoxNBRBb88YAjk+FBZbBaTRkWjSDREk1A9fYtpMedA9MT+Ab/5gDaZOs1LMaCSO/XvacOJoN/ILA1h3VzWWrixPecajN6LYu7sFZ/7Qg8LiEO66dxbmLiox76/bMANvvd6JQ691pDw2C7xhYR0MJC4micmaGsAQFutYORDUsGRFueBWVBF2ppDMHgg1JbygMMBhHNzfjv7eMbS3DKCnewTX+sbQ1zNq3t+/uxX7d7eitCIPv37tM2YW8/YbF/Hk1972VEHp6R7B73e34sibF3G9bxwgBItXlOHWeZNNnIsdQ3h86xu42DFsquNvX27GX31+Hrb+41JomvvxFwC0nb+O7V89hM4Lg0m+CH778nlseXgJ7v/SAmgaQU5Aw0NbF+KtNzoRjytE26XwyRsW3mdQsALC+HwWl89i9Cu75eD5uRmgp45IHusT9PeOcfef+fkGvPJCE9492IXms/3p0YBaxEduRPE39+9DT/cIl9E13FFl4kSjCTz3o5O42D7E9Y3HKV75xRncOm8yPvHJau6eJEbE6EgUTz951BQOHY8iFgWe+/FJzLp1Elav1enW1k1CZVU+LnYMQQoesxlz7kLq7hdEyLQcYtDCBaYEaG8ZAFrZ5qTv1wgmTAygfOpEpt0SY83nw7LVFZhSlueNc1CmMJbkhQAH9rThtnXTEAzplmBmbREe39GA8DdW4HxjH17f246jhy/ho+4RyVKoKPH/svDma5346MqINQQF/H4fSsqsauXIcARnTvVKx47HKQ7ua+cFRMFKT/cI2lsHBJ71U+NYjOKtNzpNAfH5CGbWFqkFRAVCXYua66sX46wYBCwSIH90lA97I+E4rly6AdlS+jSCtubrGBoMK3mbObvIo4AwQsE1U7x/5Aq++8Q7eGxHA/ILLHcTDGpYuKwM85eWor9nIf7p4UM419iXZN3ZvvF+mCfadYHZMEOZfAShXCtIjEUTGHaY96WuYdn0bHISiyUQiyaUHF7r461nTo7HQJUlTXmLyUYebCRmd4gCt/aDMCc9UzdnG2LRBA4d6MCDf74H//nDE/jgaDd6GGvh8xGUlOdh22P1yAkkp+lS2bSEwy5IMdbHG+44QTE2aqWZOUENxRK3a8DU6fxZiVFKF7kKBDUEguym82suKtf4WOqFQZYuKxBimO63bsgOINWJ7s0GNiB1gmt9Y9j5bCN2vdiE/IIAVt1eha9+czmCIX1qcxZMQSCgIRoxNNLLPFyC7eQQ0VgCVy/fMJsn5udg7qISXOoclnb78j8stY0j46a8ciJmziqyWQoD7ttcx113tg+mFPwZszMcF8BbDva3L9lideROTc0cRno4xEK2g1M34cgvCGDx8jJse3wZ6hZMQXg8hr6eUezd1Ywjb14y8UK5fu5UNcEXH1FamYdQnqxeqKr88CjH3r5sXmqaD5/ftggL60uh+a0ehcVBbH20HtW1RYrZ8C4tENTw2HcaMH8xWwshKCoO4ZFvNWB23SQT9+R7V3G5c9iz/hp7TM3f9pmxVsRvxJ/EuqujmP6RJMMjd8J/LKitK8aOZ9aipCwPoVw/PrmpFnt3taDpdB+mVxdixcemmrjDg2GzeAYAw0NhTvgWLi3Di7/7FGJxCpqg2HzXbngWdwK89+4VNJ/txy1z9VR3enUhfvjcejSfvYa289cxMSnIk0vsMZeTnZpeXYinn9+AptN96GgbQPHkXCxYUoLJpdY44XAc//7995xOUm0+zOYlhMKYiZfMZvySMWwtYuCSEaQ0jDyJ7+oYQng8hlCurvkFhUHcv2W+dISzp/sQZc4swuNxvLrzHDZ/cR4AQNOImXGZgiQ5vjc1T1jcWDSB7V95E//yX5/AjBr9zCQ3LweLlpVh0bIybozweMx0fdYQ9vkZfORNyEF9QwXqG+SPJPzm5fNoPX/d2dxS+082GOfTD2IeQhqxp08YwzxaZl+9/NMIh7pDZDyOf/76uxgaUGcMANDfM4p/3XEMUSEjeO5HJ9F4QnUULpTSWW4U/F++OIyvbzuIa73ymAEAhgbC+MH2IzwlhfnovDCI08c/Uo4Vjyfw0vMf4qdPHUfM6aSYAZlwiK/EUhiCYbVx4sxFtpRtZUm4MEIprnQNY3wspkAAms/0Ix6TpXF6iicWwWTQ0nQNn71zNzY9MAcLl5WitHwCNI0gFkugp3sUp45/hN07z+HGcEQkj0g4jm8/chjr767BLXMmYUJ+AIkE1Xmmet2lr2cM+3a3mv3aWwagBAp0tQ9iy1/sxaYH6zBvUQkml+SCEILRkSjOn+nHq79qwtBgGPt2t5ob1HVBctIKYGwkiq9t+19svK8WDXdUobxiAjS/D2OjMVzqHMLh1ztxcH87EgnAPM0ERUfbIH7/aos5jizIZYWDVXy+QMa0r6l7gbLn/+YNiVtxqdo6AyPCS1aW6ykfW2RL2u/Gk73obBsw33Nxe+iGECAQ0BAIaSZ+eDyOaCQufy1TuPb59IIXqG7aY6zgOvl2B36CIb9+iEaAeCyB0ZEoElRcP+tX8aRc/PiFO1EzuxgAcPZUL/72c/sRjSSQE/AhFPKDEL3YNjYS1cvqqqN2mT5z00htPn7rpSNFzsVARo7GYFJRRolF4mhq7EdHm6WpXoSDUj1YC4fjjrjykSgSCSiFyTqMEgTFQVMoBcbHYpwFFYNRsbvKhVNKEQnHETHmJqs6iG5KEBrKtjlMQBVn+owy+k19W0BYW/4HAELQ1NiPTqNaSYRnD5TDWjipP2rA6LLT3KkEQbbjkF+bqIQNDFW7qxhEbPYyV+mcLO0Un21VPcqojkGynLja3tdJ/ojF4jgnWA7vrwt43OQk2I+0VYge0kaZNiuueS3mV5kfWDGI6EqIHE0E6vlK3epjpUmnbRTFslD6EhSF2LSOoq15gBeOmwAKrwZiqbXQQWhkXxWQK5ojXZhdLMny/OUfarCQ3BPDHFn1M1faThhuhsBvIFmKYUwgw5jDYEMxSDyWQEvTdbQ0pXc0z4GCWTctkX4CwYvAiDvvYmz4LkaB22oZH4th57ONyE8+49LfO2Y7rON5lVgX4S7ryr0/+U+48jsgnMWIRJzFxIMIGYdRErS25gG0nrtmZh58xiKW/1yyCYcN4m+nFoUTQpLuwSFAVQWrArqu+PKsbHwshgO/abW1c3ywLyY70OWC0yTv8oxUFpTaWxwfWnZeUG8bxq0l1ff67KleW51EqSFGxxTBVckp1IJHZDypBpLTJkKLPJvwNijHh0KHTMGgblmS3YI5geQTVBnGHsbqSMIYkjR3yiIagGy8nS/mCFLhANSCJwahadCWBftWfCfr4ZEHcVJCxqS45U4P8rhI8gmqLEQeSUm2uW4HS2B9yyxz+vJ4ktoRUgXnlbfdokILe2zhGqSqbsukX2KEUo0hlXWQtHJxFSSZNay3G0vc4tkEI71dZBVPzBy4S8nwnq2XIjB0pc3hK8yDOJBHHuTRhHcRUbkcX9pxhgwcY8mk5hCS3AhmAtKNydyS6BSYgpA0cmTxXaLdFGlb3d2fp7H3So2YU90uE/D2DL4bYSHhAKyA1PgzRmC/y0lYZGcKafJoCaH+rVZiNQt8266dilGeLA2fO4mVSqnAeJUPRVfj4W7xS8/eBdQOLlmMnQmnm7b1toXuyc2SmpnsVF4ULhlQ+FglaZnHcwtuHbnS/7UewMpgrgreVI+LZkLLtCDpSpidHREYrWGtBouR6feowbttw2ZwXx80nnOQ2WIvpD0nG86+3/U/TnACheUwUltZ91T3VcQ3BSRtKXPtZsUZqm9mZPu7Yta+U6vBkA27QbN39Ahyrp3KBS51cdUyeBBk0Srxh3DeQcS3xSAp1SEo94/0u+nWTyYgzeJb3mxSov8J5pvJClwFMYW1lCu83Y4BrFZK2tK0XlQfhMmWrHGlldOU1tzCtQmIZ20WhEPvK0GwpQo2Z5k2sJskzQ6za5ik9NXA1z/sfV2Yc9hPNhSSp7eSPimtuYWr/ph/iiAXUMJlMO5jZFrNlQglEf6yBPKhnFIfCTihKDIqmaiJSNnUCyaLSdG+wjJzfATNO/lUHnWTPRPpxAIf2grBhWyoLAmIepMyGiRDXKfgKn1IqQ4iBSkvvLrejK8fs8IhyYvkwsB28MKSp1IFTaKqbIrHuadoPNVTkGWKaVb6KPD/DUT5kKgg/B0AAAAASUVORK5CYII=;" vertex="1" parent="1">
          <mxGeometry x="168.38" y="131.13" width="78.46" height="30" as="geometry" />
        </mxCell>
        <mxCell id="EzudPVEdrZAm12h7kSyz-4" value="" style="shape=image;verticalLabelPosition=bottom;labelBackgroundColor=default;verticalAlign=top;aspect=fixed;imageAspect=0;image=data:image/png,iVBORw0KGgoAAAANSUhEUgAAAJIAAACTCAYAAABlJ0ArAAAgAElEQVR4nO19eZQb1Z3ud2+Vtlar99VLG3C8gFlM2waaPRBwSJjggTiZLDDkAWGy5z3yeJNkIBk8Z84ML4GTbWDyyEmAbIQJEMaEMQyExWAnxjYGbLzg3e59ldTaqure94fqyiWpJFVJpaUbf+f4D3dX3bqq/vTb7+9HOnsWc8wyEEIgyzIkSQJjDIqigHNrH/OC2Cm4KbgSK2LzTX+/1XsUjzS8gc3eQ05uuayglEKSJEiUAgAYY1A1DYwxx55BZiuR3G43CCFQFAWaplm67wuTF+Pm4CpL1/6iYQseaNpYyjYrCkIIJEmCLEkAAMY5NE2z/G4KQXZklRoCIQSUUhBCwDm3/K37yuQl+GxwpeXn3BxcBRkEP2p6tditVhRcJw44hyTLqXdECYGiqiWvTx3YY80hJcI1zZJKuyKyyBaJBD4bXIkrIots31ctcM6hMQZVVcEYAwGSUkqWQQkpae1ZRyQhkcRLs4LPBc8v+nml3FsNCMmkqmrq/ciSlJJSxWJWEYkQAkIIYEOtnRufi8WJ9qKfuTjRjnPjc4u+v1pgumTSNA0cSSkuSxIkSUq+Q5uYdUSSJAmcc3CL0ujc2LySn+vEGtUA5xyKgUxUJ5Kwn+xgVhnbwnjkgGW1NldtLPm5TqxRTaiqCs55GomER2c1bDJrJFKaWmPMsrcmQSr52U6sUW0Iu4kxlozD6aECq5JpVhFJGNnM4rcIAEakUMnPdmKNWoAI3orYkiTLcMlyygvOh9lFJJuxIwCIktJjKHPUhpLXqBVwzqEoSkrdUUmC7HIV9OhmRWQ7LSWiaUgoSsF7utUG3DW+GiscMpQH5CDuad2AbZ5jjqxXC5AMxrcxbGCGWUEkiVLIsgwQknJpc6FbbcC108tw69QFju9jQA7iGf8urPfvxIAcdHz9aiCVpzN4w2Zf1FlBJFmWIctywQTtbVN9ZSFQJgSh/l/jprI/qxKgelhFEnk6k6TvjLeRUt6a/m0xI1FvfB6e6r8lJ4kG5CC+3v6krefGiYavtz9pKnm61QbcOnUBnuq/BddOL7O1bi1CJHhVQ7xJmBLCq5PqG1u/W91tlgZjeYSWQaRutQH3jn4Mt031IcA8WfcOyEE8FtiOO9ufxueC52OxYj3CLYNCJRzrWjcgTBPo1hqynhFgHlwWXYje+Hxs8xxDmMaL/JTVB0fSEOecg+qOjfgSc85ntmpLGdmUppKRnHNLdtBDjZtTqqc3Pg8PDK1N+/1rvoMI0zg6dY9sSA6innlwUfTUtOu+0Pk4tnmOFXzmbFJ3EqWp3BznHEzTZjaRqG5ki0isqqoF7aCt3mNY17IhTSX92/DaLO/t/J77s+7tVhvwwPBadBvc/a3eY/hix+Np19w61Ydrp88wff5sIZQwwimlySqCmazajK5pR9yPRwc+g8uiC02vHZCDuLP9aTzUuDlNxVw7vQx/Ezo37dp1rc9hr3ska40wjSNME2nPmKM2YFAOpa4P0zheqduPQTmExUq7qbrrjc/DtdPLsNc9MmO9O2FCEACE0tqSSI3Mh77oApymtKGOuxGmMex3jWGT91CWfUEAuFwuzGFN+NvRlfhIaKnpmoUkwFP9t+SVMGbIlGADchBr5vws6zorKna9fxceatyUk1D1zIO+2ClYqLShnnkQIXEccI1hk+8wpmg07z4rAZEorwkitWh+3D7VhzXhs0x/zwA8HngTP218PUUoiVJ8Pnghbh7PXRprtIPMYKYGhc2TD2Y21Xr/Lqxr3WB6fTH2U4B58PmpC7E2tBy5sl1P1r+Nnza+jnEpkne/lUDVVdt5sQX44cj16I3njjATAGcmunBVZDHedQ9hVbwHjwx8Bsuj5nVAA3IQN3b9Ei/X7c+5pvDojFjv34XHAtsL7nlADqJbbUzz8gLcg5d9+009szCNY5v3GJ7x78IipSMrpWJUdwHmhUoYfjRyAy6ILchJIgA4PdGJayKnY597BMflqYL7LieqKpHOinfjweFPQObWw1kq4ZC5+esdkIN4qHEz1vt3FlzHzMBeM+dnlm2WbrUBT/XfkvazfFLJCCGdunPk6BjsBfhUouH2jsfxjmfAxl3OoqoS6fuja9Cu1du6h+b4jj7UuBl3tj9taiRnojc+D7dN9WXdn0+CZSJM4xiUQ2mG92KlHdu8xwqSca97RJdeCVNJbLc+kYJiqdKBJ+vftnmnc6haZPv68NkllbgKrK/fhfN77rflTt+aQaIBOViUO77VczSLNHePrbZ0r3jmmjk/w0ONm20/OxNLEh346/DZJa9TLKpGpGumTy/p/jjV8KXuJ7CupbAqMeLa6WVZKu0eC+rIDEKVGiEMaztrCEIFaayofQiU+k5LQVWI5OEyzo7PKWkNDo5tnqO278v0nLZ6j5VU+rHevxNbven3F5MYHpCD8HBX0fsAgHPic+Dm1amergqRutRAyWt4mYwW1WfrnrvGVmcZuA85EGHOlIrdagPusqjiBNo0Pzy89JLdLq30d1sMqkIk4tBjSQ7vzQxJlZOetljv3+VIIdqAHMR6/660n62Iz8sb0sgEsW1i51jHxjtxElUh0qgULnkNDRwjNta5azxbQjghjXKtJXJuVjEqTcOJlg5OvNtiUBUihWnckpueDzu8xy1f2xufl2VgP9S42dE814AcxLrW59J+tiJmXSpxcOzwWP9MZtjjHsY0TZS0RrGomtf2fN2eit3vlLtfCFs9R7MMb6vhAAB43l+5d+I0qkakXwe2Ykgu7hjPAdc4nqh/y9K1Trr7hZAMB2SruMzgZy78vn4HDrrGi3r2oBzCbwLbirrXCVSNSCph+F7zi0Xde1/Lnyxfe9fY1Wn/L9XdL4RtnmNZUumj02fkTIdk4vvN1j+bEd9rfhEqca5xll1UtWb7Fd8BfNeGdFAJx7fan8EWzxFL15u54E4a2LlgFg6wanhv8R7BN9vWQ7NBiu+2/hde9R2wtUenUfXs/3vuEWz0HUSXFsB8tSnndRvrD+E7Xf+FLa7Dltbtjc/D/5q4PO1nVrP7pSJM46bVAVYL2Q66xvFS3Xto0+pxitqS87pNvsP4h7ZnsNln7Z2UEzVRjyRweqIT3xy/CksMObg3vEfxk/bXccA3DlVRoFpsVWe1fLZcsFKWawWLE+346uRlWGXoabnHPYx/bvlv7HYPObbfUlFTx5HedQ9hnys9LPCWrx8HfOO2GmeZGdiZrnm5YZaHsxMOENjrHskKC+xzjdYUiYAaI5IZxLkpluPMmhnM8mlWapScRqnhgJmEGUEkO40hbpvqK0s+rRiUGg6YSah5IgEAbBApUxo5lU8rFqWGA2YKZgCRSOqEZyH82/DarJ9VSxoZUUo4YKZgBhDJmpFdiXxasTAzvK+dPsO24V3LqHkicQ5Las3sG15Lp1nNWt3MJsO75okEC2qtFtz9QnCiLLeWUfNEstIPslbc/UJwqiy3FlHzRCokjWrJ3bcCJ8pyaxE1RyQ7jcJFQysjqu3uF0KustyZHg6Y0UQqd/lsuWAWpDT7LDMJNUUkOySqZXe/EEoty61F1BSRKKWWzytXqny2XCjllG4toraIRIilYzmVLJ8tF2ZbOKBmiEQIAbE4L6zS5bPlwmwKB9QMkayOdqpW+Wy5MFvCAbVFJOSPG5XztGy14MQp3VpATRApbUQWchPJzEW20tiq1lHqKd1aQE0QKTUVmzHk4pGZu19r+bRiMRvCATVBJElMLWQsp0TKdI2TKqH28mnFYqaX5VadSJTSlLfGOTeVSNdOL8tKIcw0d78QZnpZbk0QCUjWHC2Nd2BRxjyQc+JzZ427XwhmZblrwmfi4uhpaT9bpLRhaaKzklsriKqfa/O43Via6ML/GF2FCyI9lu6x0gt7psKsW24ubPIdxoONG7HbPVzmXRVGVSUSpRSrQ0vx0yM3WCbRbJVGAgNyEC/U7bV0bV90AR4e/ExVe0cKVJVIl8YW4ttDV9q6Z0VsHlYaTp3ONqyK9eDKyGJb93x37MO4JEP9VRpVI5ILEu4YvbzwhSa4Y+IKh3dTO7hj4oNF3feNiStsNb53GlV78qdDK9Ch2mvWLnCa0oLrq9hTuly4IXwOTlVyN43Ihy41gE+Feh3ekTUQQlCVXrqEEFwVWVLSGh+dXoZN3kMO7ag28NFwaZn/qyJL8GjDGw7tpjAIIaCUJufmVeypBtQzDxbF20pa48x4l2Xv5v2CJYkO+Jm77H0kiT6KlBoG/1VFtbWz4lTaSRRGm83ZLnYgJJAkSZBdrrSp2xWXSIQQUKk6vaDfD+DE+bCgSKpTfYYw9MYenDFomgatWkQacU1X+rHvGwxKxTV4zQWhwoyj2Tlj0HQSibKfihJJiMY4ZXjbO4izYl1FrxUnGr7e8cSsCU52qw14ZPAzaGDeotfY4elHgqiO7UkMn6aGXKgYQp11rWNPtQBBJADYENhd0loeLuGBobWm80VmEkRi9qn+W0oiEQA863/XkT1JkgS32w23250aPq2qKuLxuCmJgArn2iRK4XK5wAEoioKH+z/tyMy2mToCvdBoeTvY4x7GTV2/KmkNSZKSJT2i7FlvtyjIk696tWJEEtOYZVkGZwzxRKIso0hnAqF64/Nwdx5JWulRpJRSyJKURiCm20DMYm+qirVHFm4jAGiMgTGGYTmMdzyDOD+2AHUWZpX1y1P4RvsfsMPbj8VKOwLMk/Z745Bhq62IKwkxkPm2qb6svQPJL8Jjge14sOk1rIr3mF6TiTFpGt9sW4/tNmazCFBK4ZLltHgQYwyqpoHphrRVKVMxiZSSRpxDUZQ0lhczrt3qCHSzvkSVRqG9Atmj5cs1rp0AIJSmVBilNKXCOGNgNtospq1bCSIZ1RrTNCQUxfS6RuZDX3QBTlPaUMfdCNMY9rvGsMl7yHQMOmCdUNVSd4XsoK3eY1jXsiEn2euZB32xU7BQaUM98yBC4jjgGsMm32FM0aitvRij0VR0C+YcTFdhxRBIoCJEEm4kIQSaqlpuum4HohFD5gEBATuj3J1AITtoQA7intYNFQlfGHNiEqUAIWC6eSH+lfyMShBJlmXIkgRmotachJBO+brGFpIATuyhEKErJSFFRFoSNpB+UocZjGnHnlVuIgkjW5IkaJoGJYdacxKlqrtG5sWHIktwTnwOOnVCDslB7PD047/r9mDKZBp2MXZQuZBKaejvniB5psKY0nD8meUmkrCNwDlUTXP0W1AI4qBh5ulcATNC3T51If526jxIOUxcDRwPN/4F/974eupnpdpBToGQZAsOY0pDtJZmOoHKpQ3KTiSXLEOSpKRbqaqWekI6DSv2yr82v4BPhVbg/Ji12vE/e4/g/uaXcP/ImpqxgyRJgixJqaQq9JRGOQmUen45iUQJgexygRKSVGs5wuuVgBXV4xQqbQdJQoWJbi4G6V9uAqX2UU4ipdQaAFVVK6rWcqHchKqkHVQLBErtp5xEcunFTyJjXOkPlw+FvCu7GJCD+ELH4xUJfhrDKcahP1ZyYuVC2YiUKkEgBGqZYkdO4BsTV2Bt6JyS1ng8sKPo+bx2IEkSqERBCU0RSNO01Aiyan5Ry1aPJOIWjPOqGNhWESWl1zc7sUY+iDgQNSZVdSPazhy7cqJ8RNLFbjX0tR20a4GaWMMM1JgTEykNXQKVmtJwGmUhkugwIsRtLRNJQ+kq14k1BLKSqiY5Mc6Y5ax8pVAWIkmiNLNGxG4+HJenamINQSBqyIsBSBFHcygnVi44TiQRmieEQKtxaQQA273HgBJ5sN1bWsBRuPJmBGK6QV3rcLxmm+rZZeGS1jyRPMex1z1S+MIc2OsewXaP/aIy4MSXTpYkSHqBmbHAXqmR2JsVlIVIRC9TqHUSCfy84c8VvTd1RkySkrE2PWiraRpUPQNQy2rMDOWRSLA29bFW8GLdPvyyiDPzv2x4Ay/W7bN1j8iJudxuSLKczMzrwURFUWaMBMqEozZS6hDdDPDWMvGjplehguPm4CpL1/+iYQseaNpoeX2hxlz6SVUgvaxjJr0rMzga2Xa7XKA1mhKxigtip+Cm4EqsyNHMa6v3KB5peAObLXZCyczKA6hqTqxccIxIhBB4PMlTD4lEYkapNjMsUJpxVmIOOtVksHFIDuFtdz8OuyYs3V9rSdVywzHVZjzWOxte0mHXhGXSZEIyFJaJsRiaOOKD6iRVyw1HiCS+fQBmrLHoBDJzYlw/5iMk0GwkkIBjRDJ6a7P5hZkhLSemp4Y0gwp7P7yPkomUItEMix05AWqIRmcmVWeDJ2YHpRMJJ3Jr7xciZREo45xYLSZVyw1HJJKxRma2guDElEuRF0tJYWEHvQ8JJFASkYxqTSQYZyNSZ8REyxckz4kx3Q6a6aEOJ1AykUTdUTkO3VUbSWlLIUknjjqLZLTwxk4iCUckkni5swWiV6KUedBQpDROEigLRRMppdZE3cwsIpLomygIxU4SqCCKJpKo5OPArFFrotlFKqmaEQ86idwoXrXp3pr4tvq4Cz7mBgAwwhCkMcwEH8YsJyZUGLPoQPi4Cy4uIUTjeYc7lwIKggbmBdXbJIZoDAqpHQlZFJFEDKVJ9eH6iWX4aPD0rI7zGmHY5jmORxu2YIv3SM2RykggGEIYqs1zYl4uY93oR7As0YUvdfweB1yjju2RgmBVrAc3BlehNz4XUkavzaPyJH4XeBPr/TsRKTA24pz4XPyf8Svxh/q38Vhgu2N7FCiOSITiQ9OL8b+HL4dfl0ITUhQhvd0L5RTdWgCrYvOxKjYff/EewT+1Pochh5uJFwNjfbRovina/xZz0JCAQAIF5QRSjiapxaBN8+M7Yx/GeXpTCw0cg3IQCV0KtWh+zFebcMfE5bg5eB6+0/ostniP5FxvaaIDC5VWnFLk9KVCsE0kSihuCJ2Fr41dCoDgycDbeDjwFwzKoTSxLnOKVbEefHnyEpwX68GPh2/A37f9J/a7xpzcvy1IlKY13uRATebEOrQA7hu5DosS7RiTIvhB08t4ue49xAzN2CkIliY68ZXJS9Abm4fvjVyHb7c9g42+A1XZs+1S24VKG26aXAWFMHy784/41+YXMCAHs2wDlTBs8h3C5zsfw6u+A+hRmvGVyUtTEqySEMfHJVk+UaWgl7caJVEtQAbBp4K9WJRoxz73CG7p/A02+HenkQgAGDh2uQfxtfYn8bvAm/ByGZ+f6kOb5q/Kvm0RiYDgI9Ono03149HmrXjFu7+gcTlNE7i35UXsc4/gvOgCrIxb6z/kBMQJDVmWU30IjASqRW9srtKMqyOLEaZx/Iv+Jc2HBFHx08bXsc17DEsSHbgwemqFdpoOW0RqZXW4MHoqRuVp/Mn/Hhi35vYPSyH8rv5NSCC4KHoqSM6Gv/bh4y7MVRvRFz0FixMdaGBeSISmWuoIAqViQXkI5OJS2lqlSE8Xl9ChBXBBbIGttS6ILUCbVo9XfAew2zNo6Z4QjeO3ge3QwPHB6CL4LPQsdxq2bKQFagvmKA3Y4evHCA2BM+vf5j/VvYcROYxxGsmSYqunl+Lu8atxT8tz2OQ7hE+HerF6einmqI0AgA3+3VjX8lyau9ujNuPO8SvRG5uX1aZvSA7hx+2vYWPgEDSmpWfmkfwj3zV+Nc6Kd+OrHU8gRhT83eTFuCayNMsz2uMexvebX8Jbnn5Lrn275i96LVm3ewDgVd9+qDY83T2uIQzKISxQWtCoeRGVy9+r0whbRGrhfri5hOOuIMIw73udCyEayzk6tIn5IHMJyxJduDG0Eov0+SQj0jSiNIEwSX/WRdHTcM/YNahnboxKYWz2HUGEKpAIxdmxbixMtGLdwIfxeGQHftj0ChSebl/IoAgwL+qYG8vjc3HrVB+61ABGpTA2eQ8jQhOoY270xRZgSaIDDwx/HPc1v4Tf17+Vl0xLlQ7cOppc66g8iS3eI1CIhiZWh4uip2JJogM/HL4e32/+E/6zfmfWWm4uo1WrwxSN4ajNY+BhmsCwFMKpSgsCzItBVNZDtkWkdj1WFCaxsqREPhk6F5M0im+1PYOXfe9BJdnP6FGacac+UfpfWl/A+sBOICOpujDain8cWo3rgmdik/sQXsvhyQSYF38/fiVUcNzd+iye9+9Ji3dREFw1vQTfGr8KX5m4FAdcYzn7QYq1RqUIvtD5OLZ7jqcRxc1lfCK0HF+cughfm0yulTk7xMvc6NIa9Pvs2W4aYYhSBU3Mh1ZWB3un7UqHZRtJlIsASUlRDoRpHHe0/wEv1O01JREAnJWYgy41gN8GtuOZxnchueS0kZiqqmIX7ceDja9B4hQfiiyGnMMmk0BAOMVPmjbiuQwSAUnP6Dn/HvykaSNcXMKNwVU57Q8JBGGSwJ1tT2Ob51iWtEkQFb9q2IpHA1tRzzy4bvrMnPuakmIYszEWAgAUomLS5iQAJ2GZSJIeewGQ98tC9FB+i+Y3/ZfPELRiYG72HsQdXU/jP9reBpWlVHGZoqpIJBKpxOpO9wAG5RCWJDoQYL6c6233HsMz/mw1c+Kjcjzv34P33CM4O96dN6C3vn5n3j4CHBx/9O/CqBTGilgP2oocV28GFRwxUlm7yAhLqk3UHZ1IZuZWaytj8/GD4etz9qk+LgfxxY7fYVDO1uG73UN5DUxZlhH2aHiDJJs2MENOLNMLSxAGlWiQQUHyRJxf8e0vOJV6gkbwZ+9h3BRchTMSXXjXPWR63bYMdWaGITmId93D6I3PQxurr7gtUy5YIpKxJqcQokTBIdc4XBnCTqRN/MxlyxgUJ1WFDZRqvmlofSfg4hIamRc9ajPOjHejVavLqyISRLPcieSQfsYtl0SapFEMW0gBxYiKESkMP3OjvgrB2XLBEpGoIalZCO94BvDp7keyft6i+fHg8Fo0atbGbaaNQDA8X1NVaIyBcGBRvA1XRhajL3YqepQmeHn2x8lHpAjJ9ghzYUwKA4CtIYWVhAwCbxXiRyeeXwBGEomSilLC8HGqIU5z63LjJJ+0g4apYXTAWbFu3Dl+BT6gtKXuG5Gm8Y5rAHvdw9jtGsaUFMU3xq8oep/VRIB50MR8GLfh1Li4jKY8tmC5UZhIBrdafHvrLUw2zIUYURDOYRQSQ0tlQkgqqZoaBcWBtaHl+PrEZQDh2ODfjd8GtmOfaySrNqdF84OR2kp/FEKCqBinETRqXtuVBASAxAkmaRRj1J7H5wQKE0lXLRpj6JcmkSAa2rV6eLmclUjMh1bNjybNh+PyFNSMPzohSXUh6oPEYQJhRAs76PREJ26f6sOENI1/aHsW2/PM+KBAKsOfC8lUjbU/WKseQ8sVlnACcaJiXJrGufG56NAC2AfrneQaNC/mqc2YpkqqnKdSIITkd//Tzqwxhn5pCiPSNE5T2tCk2ROjpyc60Mi82OUZREifBilsICqd2IbwxERS1WhML4/PRT3z4LHAm3lJBABdWgNaC6jgRubFYsXalO9TlGYAwCHXuKXri4FCNOzTC+MujJ1iKye5ROlElxrAsBRCuIAX6jQKEkkYuqKn86gcxlbvEcxVG3BN5AzLH7SJ+bAmfDY0cPzFewSEnJhT4nK5UqswlhwMmKu3Uo/+xyxU00RA8MHIBywlSi+Nnga3iZFuRDOrw/mxBQjTOHa5rSVSi8Wb3uNIEA0XR0/DfKXJ0j0+7sKa8FmQQPC672DOsa3lAqU0N5GMR7FFkE8Fxx/87yBM4/hscEWqei8f3FzGLVMXYFmiE6/VHcRW/zFIspyc7mzoxQ0AjOUv63jPnfy29sbn5iXxokQ7Pjy9tODeAOCSyEJcEj0t5++Jnib5QKIdb3kGyiqRAGCnexAv+/ajSw3ga5OXIcDye7kyp1gbWo7zowswKIfwku+9su4vE6khg3muSBXDGwN+Oz2D+PfGTfAxN+4d+RhuDK40HStOQXBGogs/GPlrfCK0HKPSNH7esgWqiyftICRPqqo2+iZu8RzBoBzCx0PL8cnQ8ixJQkGwMjYf/3f0Y2hiPmgFgoMaODhhuHtsNVZPLwXNICcFwdXTS/ClyYuhEA2PNmxBtMzR4wRR8UjDFoxKYVwcPRUPDq1Fb3xe1t4AoFMN4O7x1fi7yYsAAL8KbMVR12RZ95cJ0crHVKYTveMqgKzz/BwcT9TvgAwJX568CF+evARfmLoIx+QpvOXuR4QmsFBpw9JEZyrgtt89hnXdz+OgZwLgevPNIs6JHXFN4N7mF3HP2DX4nxOX47apC/Ga7yAmaSSVrW/T6hEjKu5rfhl/Ezo373ohGsOPm1/FrVN9uGfsGnx18pKs7H+bVg+NMNzX/FLRbZDtYq97GN9q+yPuGbsGH1Da8MDQWoRpArvdQ9jvGkUTq0NvbB7aDTbgJI1iu0mOLxPXh8/G9eGzLe/l541/xoOGaZmZEBIpp3FgTIRmQiUMvw68gY2+/fji5EW4NLoQC5RmLNBtGIEhOYSHW7fi+YZ9SBD1xBTJjDUnaRQq0SwlHV/zHcDnun6dqkVaPb0k9TsNHFu8R3FvywuYoBF8RB9BquTxLne7hnFr529SNUR/Nb0s7feFaohUMIRoDBGaQCxPfMyIKSmKGFERySPddniO47Ndj+KToV58IrQcjcyLlbH5WGnobRkjaqqy4crIYtw+dSG+0/qsacpnUA5BA8+ZuioGxiE7pj0kJb3/MzhHPJEomBqROUWAezFfaYKfudHvDSLoVhCVlFQgM1dOrBT4uAsdagBz1AYccU1gXIpYUj0+7sI/j16LM+Kd+HLH77FPT5Mkqxrr0aM0Y0yK4Lg8WTAPVwkQEASYB81aHXrUJkzRGI64JlJnB9s0P+4bWYMliQ7c3/wSHgu8WbbzdUYYm89mSaTM7mtWoBKGCRJByJ9IsdR4eLJcxfVRouCwaxyHHTKAFaLhuDzlyGwRJ8HBEaQxBGnM9LOOStP4p5bncf/IdfhUaAU2+g7imFxeW8mY8eCMQc5MxhqJZKXrWFbLF8n99MIAAAFGSURBVL3FjaK78LV0zGc2Y697GB+f8wtQTioiRal+sFTM45MppSmjV0gS43jLXDAlkCGp+n5uOlUtRIliNVBfMlKDi/SDFLJw3wREB45cI7LSkqoiRKATSAQuT0qg2Q1jWZH4e8tGEqVBrwMySivjLDFjUlXME5spBOLg0MDACIc2wxK7tQBBJOOxLrJg8dk53yRjDJo+uTmTQKIn0kwikBGV6CAyG0EIgdvtBiEEiqKkmtDnTTJRSkH0ISwpUaaLs1RpxwxFlChlj1LPRshCrWXYwQXLSIw9gxhn0LSZTaCTKB6i7BkAVC09AWXtXBvnM3IY3Uk4h1QS31BWZDRprBUgkwr5lCdRu8iIL2aiNivZT6ImQYVaM6kXO0mkkygIQghkfe4uy9HJ5SSRTqIgrIxRs0QkzpilM20nMfuQNiYkT9rs/wOLVose0OuQ7AAAAABJRU5ErkJggg==;" vertex="1" parent="1">
          <mxGeometry x="170.46" y="161.13" width="38.6" height="38.87" as="geometry" />
        </mxCell>
        <mxCell id="EzudPVEdrZAm12h7kSyz-6" value="" style="shape=image;verticalLabelPosition=bottom;labelBackgroundColor=default;verticalAlign=top;aspect=fixed;imageAspect=0;image=https://upload.wikimedia.org/wikipedia/commons/thumb/2/29/Postgresql_elephant.svg/1200px-Postgresql_elephant.svg.png;" vertex="1" parent="1">
          <mxGeometry x="368.85" y="182.88" width="46.77" height="48.25" as="geometry" />
        </mxCell>
        <mxCell id="EzudPVEdrZAm12h7kSyz-9" value="" style="endArrow=classic;html=1;rounded=0;entryX=0;entryY=0.5;entryDx=0;entryDy=0;entryPerimeter=0;exitX=1;exitY=0.5;exitDx=0;exitDy=0;" edge="1" parent="1" source="EzudPVEdrZAm12h7kSyz-3" target="EzudPVEdrZAm12h7kSyz-2">
          <mxGeometry width="50" height="50" relative="1" as="geometry">
            <mxPoint x="300" y="190" as="sourcePoint" />
            <mxPoint x="560" y="310" as="targetPoint" />
          </mxGeometry>
        </mxCell>
        <mxCell id="EzudPVEdrZAm12h7kSyz-10" value="EC2 instance with&lt;br style=&quot;border-color: var(--border-color);&quot;&gt;Ubuntu Linux" style="outlineConnect=0;dashed=0;verticalLabelPosition=bottom;verticalAlign=top;align=center;html=1;shape=mxgraph.aws3.ec2;fillColor=#F58534;gradientColor=none;" vertex="1" parent="1">
          <mxGeometry x="80" y="343" width="110" height="130" as="geometry" />
        </mxCell>
        <mxCell id="EzudPVEdrZAm12h7kSyz-7" value="" style="shape=image;verticalLabelPosition=bottom;labelBackgroundColor=default;verticalAlign=top;aspect=fixed;imageAspect=0;image=data:image/png,iVBORw0KGgoAAAANSUhEUgAAAIAAAAAwCAYAAADZ9HK+AAAEEElEQVR4nO2aT07rMBDGvz49seEO4EiIHWeoK7HlBCzqiC3rbidhySFwcw8kp5segA0Sm4QDcABWfounREnzp3HiUsD+SZba1JmM3S/j8SQzrbWGx1n+HNsBz3HxAnAcLwDH8QJwHC8Ax/ECcBwvAMfxAnAcLwDH8QJwHC8Ax/ECcBwvAMcxFsBsNqu1KIomObBrb0zL87xmM4qi2u9BEDT6dJGm6d5zgyCY7HOappPmzRraEACNRkSmZnrtmbYsyxp2iajWRwjR2q9KlmUN20qpRj/G2GSf2+weAysC6PoTptibKgCtm39Un1CzLBvc/zcJYKa12Qshs9ms9ThjDEopMMZMzNXsERGEEEbnF9duI89zLBaLWggnotZla7FY1MIy5xxKqU67XQRBULtW13hM5+lgmCoGFRXv3gmMMeNIUD1fSmnqzl6klA0/d33cXS4YY6Ovd+jx2GbSLoCIQETl9zzPsV6vp5i0jhACy+WydqwaFdI0RRzHtd+llF/m39ExVQxaFG6y1g6xdwja7nKllPW1+avGYwsrAmhLoIZO5FdO2L7kbcpupuCnCeCvjShSJIDV0LpYLJBlmVGyE8cxkiQZ1JeIwDk38nPXxyqc88k1jR+JqWLQo/C2MLsvKUTPHdnXxt5dbUnhlKSvbzw/IQJYLQVHUfQjk0Kgf2v3m7GyBFSJoghJkpQTWmTYQ8KrEALz+XzQdUzDPwBst1ucnZ2VvhS+FfWCMXUM2+R5jjiOQUSlL1EU4f39HQAwn89H1Uo6MQ0ZGBDiTJLCIfZs8PHxoS8vL/X19XV5bMrupYup4yl2JsV8cc418L+UXXy24WfBQZ4GtlUFu5KvryIMQ7y9veH5+Rn39/cA0PAxjuNvlQjmeY40TUFEkFJCKWW/RmGqGBgofEhSaGJvLKvVqpFEfn5+aq2HVQpNmDqe3QjAGCtrFlP86uKg7wN8h6Tw6ekJj4+P5ffT01O8vLzg5OQEwP5K4bGRUoJzjjAMEQSBdd+sJ4G7mCSFm81m1DW6kqLtdou7u7vaMSklrq6uGj5WfftOSSHnvEx40zRFGIYIw7DzQZUxpiEDI0JcX1KIndA8prWFxiLpq/Z7eHjo9dNGUjhmfoionA8pZTmmYnmqjk8IYbduYXzCyDWuTQRtL2DYEsDNzU2tz+3t7SgfTUUwdH6EEKVtzrlmjGkiKj8XFDkAEWkhhPVdgPESUA2JJuGRMYblclkr9YZheJAQu1qt8Pr6iouLi/LYkOyZMQYiqj0dTJLEaGcwdDzn5+dlX6VUudcvdlAFSims12tsNhswxiCltFoHMH4hxPO78G8FO44XgON4ATiOF4DjeAE4jheA43gBOI4XgON4ATiOF4DjeAE4jheA43gBOM4/G2sLz9RAy8kAAAAASUVORK5CYII=;" vertex="1" parent="1">
          <mxGeometry x="152.61" y="391" width="128" height="48" as="geometry" />
        </mxCell>
        <mxCell id="EzudPVEdrZAm12h7kSyz-8" value="" style="shape=image;verticalLabelPosition=bottom;labelBackgroundColor=default;verticalAlign=top;aspect=fixed;imageAspect=0;image=data:image/png,iVBORw0KGgoAAAANSUhEUgAAARUAAAC2CAMAAADAz+kkAAAAb1BMVEX///8A3P8A2/8A2f/1/v/6//+79f/m/P/p/P8A3v/w/f+R7P8g3//F9f/5///u/f/f+v9s6P+v8v+n8f966v/Z+f9F4P9Z5f/B9f9V5P+d7/+H7P+28//U+P/N+P9z6f844/+g7f+D6P+X7P+D7f+pm44WAAARRUlEQVR4nO1d7cKiOA+VCgpS5VMQUWSeee//Gl/apl/QAuOOCrueH7uPCA4NbZImJ2Gz+eKLL75YKQ778/HSxP7piWv9+Jhds13s//W7+iyavHUQQVDlu8OfXOnFYYkRA06Or7rBD+BcIeQAiGSSizfzyuhaIHltd3EVv/RO34hMGRcMDl/nrKQ4dwaXOunL7/ctCHsDg9GFU/Nln/RFwq7M3nLXL0ZmGhqVy+jwDrlRJuTCy7tu/XWIFYWCkDZS1DbWy9JAO1O7Nvgjdb1IVDAWVOR1WD9aXXnm5gHGFVJFEpR1lmZ1wX/q8eYx/HU0MJLg5tLP7v5aOYpcsGk5ZOoZweMYscPejR9buyHiD11dK/eHoxjquq913USV2lV13S7sG5S/4c5fCB+GcdUPE5MrtYvust6x/Apnrn5hDd+9+LZfjCsbBR58EZdy7I66iqRz000jt3+Zi9lXu1fe9MvBFpDRxbhIK6NMpVyZQybtwZyfdS8hD6bK3vit9EhQwo64wvbYvJmzY5l8K8KRPdnK8nUjVAhqiYmO5efKLMjNhpnn7ZpdFqZWUGj7/iDMDerm012oYGTfDjzQ6hXLDxuC3YXt5MZdMyzcWRSM+PQ3ZDJqqwIzNMGY03UMpCoZU7McdyaVn799q+/DqaVDwKMxNF/6J0wo5cAeq4gDVT2vES4bQTEeS3FLVSxTRtfHbD7NjVstDyAVmwkSeCguvlUz898smFSeif8uAwemA8rJE6UpqqdO9ZhpxqPLbNGYK5WdsoJG7BUDc/SCf71UGlXZBueJs/8jUmFWRSiWYCLr89+QykE4b9ydGx9wtXa94jrTNshruablKnfi/NVr2zmWWcgiEyGlUZflUKzeX2ExomLkufJkEfVTuN8ytssBL65ar1S8SY8/5XJgfgr3cke2xOv3+Cd3h9wm80EKJWO3zyzstObdIcQbkW2IEWwM5Xo48CNWbdpMhGxWAIiy2vgVFRdBJA7xVKPVnGf2SPBakI2GiLjNcdS5dFTVrwH5ZCBr8YDpblaNO7NqFdl6c0AOsgaR8ct1AJzbwvSdD44+eriRLxEdwBAhY5LdK5g2fvGNvxZs5APT7LkHXyQ5WhwE5Lzuc/cHxpirlso/uH23hOkd1L7p/l8DGPpdHnGbLEwqPCAxGdCdgqtHmDWKPWpWH7bdCCN0ox/OaVgFAxbLlGQox7AMU6aSr+s3Qdx3RYm7C9s/E4dBOG24A6WzahO02eyRHNWTAtFFA399elz/ELMngsSMK9acZj7d62JKHE6A27aqyoShrKqW2KQp4RT1fZ1B/jgsHMPQlNmAknO87xwU9yTtr3dyD5G/j2MZ9jfzS50iXB0PzE2roe0l48NFGXJPH485qD53W+qwLLBBNt2BKl1TRM6v8ZCO3blr+e1OCBjAhZzgze74frr7e3+/PVpnMPUQwvVaKh7Oj+GcR1XacAcewm+T/NCkx6k7NFlrWJCPqVTJEhCXukxgaHKDuOffTM1+l58opwMEpfR/AJVLl4uvy4TUd8Bf4hQeVJnm5fA1JEIthy37sTzo/SvlkteRF6p324kk74YOrEeuRAZDHUHVU0DgKbebzUUXjIG1uxgcVSYKckpGx6511iM3LTbemwq+2LjTViqbIPdWqisJ4WUWVLlqkUZnHLg3AZx1iIgAAXdm3DXUFK4Lv8TVSFwrjwGhfIFm+lyoMsmkK8KJw/RZRizgYkhyeYfoMDwI6jWgPycXEEd0VeVSLE7rqpxirDtXD2UJ5WZXJUrzqsVtld968TeNuF8awvtuphDcg4UxK2VpFHKuvZnMl1B3+GxUtfsc9j0kklLrDi93WrppEMG/0ZsR7lWpCVhU3OUq7+sxcOMZZ4uGnhLTwK6a/9ErLAQaB5EjBJyGWWtfFoksiXGabsUcNoWDck7YuKvrgUPjChJstZQAbJpQw6P7pnE3Yv1uFzNbeArHluKAdePsK1V3AgZC6f3MAZR1Bb8SmE26mC7bhVhonsJwkKWo1oOn3BpmeT0USk+hcpXVjlOEhGab4kq9CVwhOtanlGnbFzWFfDQJpTtTSQqcWk3tWM0MJ3nP8ppfDm48g7v1lEhlvqkz6lRYpKLSU27qOSMcJ65cllDZ6/Fs19h6VmjGWsz1YotDakF8ZbKM8nGPBpF+CNyujJrERhmXqnwMqhbOUhXuTrl6NCrJtxP2Wfsu1DYvQoN83OpUEVHIIbDq5MpiqgmdAWp9kuD9cjDNYKWoAISF0KbKfSSQrzp6YrJMBWWOI9n+dyJij3uSI8AHq51oVSv9VYBNV5sA2f5P8zhiPGdmy5iA5tKkI1LRDAmYIfRr6p9higp/OieyB6Ln1Hn1P5IKV6OTCgOI23NCWq8EOOTBhDH0+Gi1XKjFhxuuIOHvTASWPFhBH69gBbU/oQaltr0pR89WoejUUnn1xN7vNssgvgFgmdvxpygsM1InS2S3zBqfW0yVCY6TWyzFMsPzHg/Eql6cOlkSqxenBhuUbj/jHgDfai4gUsnTE7eRc9TCQnWyWBWLqlY8ZUaNMtVTJQf7afB5MKJaDrbd4aYyi0Wz9HpjKLsrIpiqiyBCiUoNqyrsRRIU5snZMlkUh8PlDFT2X+t+iwtvIf2NXL5NsWk5HnWqnOHAriaxaNOJ18pAhN9WHC2Ki5ZSTyW2M6gyxsFEhBK2yBr91hCM0zQ3RPrQI4IvjRtiXxq5z2+YAXL3Zuz8V/ej2dqc6jfZQ/oi4W1qYjBYxkKzVDZZWFBKSLruBtoEBNzIskh6OVGKm9YoodcV7A5HcyH74Qo5K92QFtWP8SYfltOnH91llizmotNOOIS0KSljiPVybDBgEqIGtds3MX6u/Ntj7sEH0KiJzVDbh0A6iJoGvknszfNTE5Ytbstr09tPcV5H2P8hjqhWU7mLsMkqIsX10OeL2rbrwO9/Xmj1BLIOqOFpBkvIr9V+e2Zd/2FctV6KCX9uoBmgxVtmUrhW9OIPvSV0LLV/cUHJVBV7vXskvlJfrNfLjBcWzgkMxXBuC59VglB81Xia4w1+Potep1GnTfewXRaapOmNdAycHMhdENg24U2ctXrKPliU7enDrXsdWB3u0IpTeKpxOk3Od3tSvcLPtjrDGQXDJoQLg6YAHbF9kbY44t9MhZz5nlJJ1psiD8jJPx2QnIP9kJndzfp8twd7zRXuVPl6oqvag3/Lh8USCgFv6Yiy1kS7b5Nw57se98xGIzIqBdVz/V2dYBOVX2/0ungcS0NlIWvI//Pgn8dGJDL2jx9Wljf8MadcCFflD3BIW2MRi1IJU12a2KQnD3GzE3sb24+02adzYU8iSqvhgHpzB21J5RRuGTAOnO7IZElZm61Bw1phj+IbBDS7NnHldYce8AjxXyjHpG/6MO+bVwYgCZRefH20RqU5WyBBkWe+B/vmxTAln4JalO369+ujwsEfLRUqD1w9sjN7x87FEE1YHYZ9QaL4nuVlgfG0YBAuiqRO77FibNgOfOV9Etj+ztDCyN0L7x0zaH/RoSeGVzBx+u07bv5lYMrRyD3ysOL5e657iA6uS8QA+SWEjTkOCAKvxc03IaImyML54QmRXoqaZ4gsKQyI9C8sQPtHONqTFRsl23cbXGJPEoL+XmjgbRYmWlOJVxJIbXwWHXws1/wLGrBAdNKWzjuJJmBcTYheaVY+DPSLWwQt/UmwzvN2PsleCIEZX/7uBmRvvAe9BVfchxJU40jnedFckLHMRatOe4gA+FFLybE/ASAjjHWeF40oyZLIJzQtAeRnV9z1F0pMRzlzgmGRzOvkyumJH6dJPg1WtIuKUR0g+pRW6rSZOn/NUpnVj59TTwQtZ/x0kMqq4rUa5kmlVyw2pUf/I1LR3vSBLNWWEv8VqUCJBLO4k1zZcu3bw1nalkDwcWdwZVevbU8zLDNBrqygamq4q7fMM7y4Dif9TTnFuGKB/gIr9uKmPf4OkWaCnNES4I2oVVyxx8/fSzY2zLt8A5f4Y4yMcgYNvuLd4XTfVVn64zSSSTwSwm9GA1mrAMTirJwMV3uznydzy63VQAML7PdrbvgtgE5MNtOsvAWyogEWYYxQYJtf82rXlg1wz4yK5SRZUSgB5am0tymNOprzmFesbMV8N/FIj9L2KFH+i/L6w6thioGmal92x+8Ar+MeUE182awSOepyiBVhtYOQ3AmSZGsO8W8EcbhnMjSeeY8pe5LleAiVPfIBpyWvmr0ih6GmfGKVfmqwsanS1AtV6pW818sSKgv/CXg7MzHnfY1JaH6RrK92XEHBD19h4hVM66avbJS4rFP+ysIy2Grc+4elXi7TekwihKskEdJcdTKIwZM+SZ+3glr7M496rYPVaycDUyvAXXudoTLOIBvdy9wrC/dn3R4cx87Yar1XWmXCpTCSStfN/hI49nlNnZ4I58RdvWMZ9C8N1szR0LBP1JKvTu/uZkfSzqSrvxJrSNYbrx3iXGNgWeNk94fK8p6VsJ1qwwX0hfi72DeXy/H+JMv8cL7fz6veEX7xxRdffPHFF1988cUXf4b98Xa77RbTxsmOHS/xIVU+ZX75Byly4974t4N5Q9JLBQE6XC+9gnenRkNIzfGze9woN9YUhYgmpDckHCzzAMtr0aODSUUW4aLgueeYYnOXZxLkp1Kh0X7+z6Bg2QEGKpWCgQbgniubJHmBUan4VOb58X7OSehl4UF/IhWerHEzOlueUS3JlFQI6wVetEL5l8vmmVKpiOQwSY0+9SKFSankSOYPwy1C20WH/XWpEP4AS1P4Nd5uUSWi8+ek3XYHWtk75VeFttugJKHq4y9CCMS/fg2D+VwqRN6cbRdlaZotOpqrSyXkn1LQvVwt1lwZ88ZdR4cfaF3xli4DoZ9LhfI10O9Fy0JCkwptv070CtECzFwgWlbGP9OhES/s6MgzWl6ANiaVeMsTKMcVBHOpVH43R4KcGCFCiSP0JFTdvV13gNBxDuT/Zez6V4dl5ekBnHn+/8gV2e2HhvR/foZcIGGZRdEZcpIFvAJmHDvhRsBMILRYohppL0FiLrqZdK5wwHoLloiK7Rc5la6tnFzG1Ma4v+LJ1nQIFavw4uT9VntWKAgMWiIfQleJ9tQ/9R6Iuhot4jTLc1WH99O0DequVVpqLa4pZw9irpCbxTV9hrTfA9OyKRI1Ue4h+ymYA0berasTj2dIpbNrSlZx2SwFpleOF7rsMXuClHOb/BAQPi3p++DtEryFNVbSCmWdvj1LKh3iC/TUWjYpWdggWpHLqJNHRdd0f229zZ1OfiEV0v/2Oal0OO0oL2ryZTGfhLTM9N0S1BthUtkKHKKA2ugyO/8PzZNK1FxSqp65VA7NRZJfiFi27xjds1D8FcqEJBVfVCrq86X7XapHciqVvXCBOXpSIT49e6EJ+VEcba5k+QkXjtjz7ZKLHRSpHDDzyRibuvfyNdhKJ8wGYbG39nGZXP3+nvk34m8xJJcW3qbZqqqEa6vFQvVtKQuUEJMKxLf6ZZmHZyoEaohJAR75hrj4rN5nR5TPuS+VC4JyBg/8QsbiBbN1XXwoQfP46X4miJiDH3ob70p65l1ZfcIRmgST8VAjRF7dfsaMSxsyMfHwwIna3zC+EA1Cmbusfqa8nc9pSfX6ov04TSq0a0i3NKgfioqkgCXFWiOUYFSJ/0K3kUHCXll+B1VdlGIfVEs3CMqlKmnYno5tvQ36npmtoeNmX3BDjGgJIh+SUwcQMMrZEQdecxDDbpH/kPTvOb3dVVpmo8mesB+GLpVNTm66dTduDY3fHtSSuAn91N43pE0ljaLcMHvwFVsKKWsqJwzLCX4A5YJQl7Z8310tfntow6lJ07QRu/74lqa9RM69O3QRBtztPh3VsKNHfkAPG8THlPzoooOTX3zxxRdffPHFF1+8Ef8HiaLEkg69+7oAAAAASUVORK5CYII=;" vertex="1" parent="1">
          <mxGeometry x="181.24" y="433" width="45.66" height="30" as="geometry" />
        </mxCell>
        <mxCell id="EzudPVEdrZAm12h7kSyz-5" value="" style="shape=image;verticalLabelPosition=bottom;labelBackgroundColor=default;verticalAlign=top;aspect=fixed;imageAspect=0;image=data:image/png,iVBORw0KGgoAAAANSUhEUgAAAIIAAAAxCAYAAAAWXXEmAAAFeUlEQVR4nO2cP2/iTBDGn3v1FqEklcO5IuU1lt5IcZHr6UNxdP4G0CDdR4h0DXwDuqRweve5wpGI5CZlqBzi6lySLm8BYwbwn11jILnMTzolF8N6dvfx7Mzswpe3t7c3CJ+efw5tgPA+ECEIAEQIwgIRggBAhCAsECEIAEQIwgIRggBAhCAsECEIAIB/q2oo8GME/h8E9zGi8HXjumXXYZ3XYdl1GGatqtsKFfFlm72GKJzBc6cYDScAkExw6/Jk9XXPr/DcafIay66jddmAZdfL3lqomNJCGA2eMBpOYJg1tC5P0Go3Cp90Eo53+4IonMEwaxhc/yce4h2gLYQonKHXeUAUzuB0m3B6p9o3jcIZAj9OPImqkITdoSWEwI/R64xhmDX8/PVta9eetrSIhzgMylkDicCy67i5u6hkfTfM2opHIWEI+0dJCFwEg+uzyo3gorLs48rbF4pRWhp6nTEA7EQEwDJmkNTycBQK4ar/CM+dYnB9JuneX0xhQclzp3C6TS0RROFspahURkDrbXCqCFIDP05qGmXbIPu27Z9hHm3tCam9KJyV8qy5QrjqPwKAdopI6SVRxptc9R8R+HHqNapd6NpFtY+09nSzldFwkgS2N3cX2gMf+PFyfEum4bwdPt6A/hjlBoueO0Wr3dA2bN0o77baTCAKZxgNJ8lAqry+1xmnimB5/QGjwVOVZu6c0eAJvc54Y7yB5Rip9inTI5DanW5Tyzg+6YZZS9zwNvz89S35PQpnSWXSc6dKpWruXehJsezjuW33MTx3mrRr2ccfIhbi9RcAi+V7nnEF/p/kGv0s8gyZQiCV6bo8XgdoXZ5gNJwsJ03TuyTtrL2v1W7gx/ffAOadzpu4+WbYXASb6W8drXYD1nk9ca9X/Ufc3F2UsnNfkJ3E+tJk2fN+0RLt3b4UVm4zl4bo+VV74lZE0G6svL/K5YF3KHpODyjT7ss9C4fbWoUH2zXcvsH1WeoEU/UXUCvUZQqhzGDwQXe6zZWonD+Zuswj4uU//jRY5/lunO5Z9ES0Lst5q0MQ3C/HMc8b8mv8PWnkZg3G1yNV2+Y3Yy54uSXdSP5e5MazoGVgwz6zVui1kiWuoC+Gubxe1s59QX1SsdGy64sAPt9zVnZCiUen/Onixnq3L1XdbsX1Fb0OKH4iuLd679VN8oJFk8tfUySayk4o8UkO7uNk4Cmqp7SSSsk6rGcuOpG9YR6tFFuyJpkva+/ZG3CKgnCeyhctoZlCMMyjwqeIoPSL/58by5eH0fAJA1tvz6JssQUAnO4pev44qRWkFY48d5q6rL1XWu1GkkLT4aB18VLthCjtEQyzphzcccGkDSI3QsWdVQmlUiTWXuchOT9JdQTeT5XlZh3Pnab2WzXr4kf5VN5vmDU43eZKykt9ApbFJCIrs+BkC0EjUOSdyCrV8uVhm5pCGZxuE8bXI1bT2EynKOYo4w3SKpYkQBU8d6olBLpGE57VJwDK+0SZwSLdqMgrrNcOsgbS6S7de1apd1fQAZisKmmVh232idM7zbR7vn9yprys5m5Dq5xD4LFB3tOUtimSh2q7Zdh255DayEOnf2XbWG9vmz7lCsFzp7jqP8pZhE9Abh2BIujR8GPtygn65AqBAqjAj+VQ6V9OYWWRot/RcLLzzRg6FifsH6USM0XbaSdhqqLXGWfm48LuURICHeUC5sfQqnxqqQIW+LEEpQdEedOJi0HnCFQegR/jx/ffiMJXEcGBKfXZRzomVfYQKZVFaQNqV5+XENQp/WloPpm06ZH1/QcUV6x/ErqMiITdsNX3IwCbH2QlSAxpFUWn29zrXoNQzNZC4NDeRFpm8VFOB39WKhWC8HGRL9MSAIgQhAX/A1eyc+5GCwG3AAAAAElFTkSuQmCC;" vertex="1" parent="1">
          <mxGeometry x="152.61" y="363" width="74.29" height="28" as="geometry" />
        </mxCell>
        <mxCell id="EzudPVEdrZAm12h7kSyz-11" value="" style="endArrow=classic;html=1;rounded=0;entryX=0.5;entryY=1;entryDx=0;entryDy=0;" edge="1" parent="1" source="EzudPVEdrZAm12h7kSyz-5" target="EzudPVEdrZAm12h7kSyz-4">
          <mxGeometry width="50" height="50" relative="1" as="geometry">
            <mxPoint x="510" y="360" as="sourcePoint" />
            <mxPoint x="560" y="310" as="targetPoint" />
          </mxGeometry>
        </mxCell>
        <mxCell id="EzudPVEdrZAm12h7kSyz-14" value="" style="endArrow=classic;html=1;rounded=0;" edge="1" parent="1" source="EzudPVEdrZAm12h7kSyz-13">
          <mxGeometry width="50" height="50" relative="1" as="geometry">
            <mxPoint x="510" y="360" as="sourcePoint" />
            <mxPoint x="240" y="440" as="targetPoint" />
          </mxGeometry>
        </mxCell>
        <mxCell id="EzudPVEdrZAm12h7kSyz-15" value="Amazon Web Services (AWS)" style="rounded=1;whiteSpace=wrap;html=1;" vertex="1" parent="1">
          <mxGeometry x="170" y="50" width="210" height="60" as="geometry" />
        </mxCell>
        <mxCell id="EzudPVEdrZAm12h7kSyz-13" value="" style="sketch=0;pointerEvents=1;shadow=0;dashed=0;html=1;strokeColor=none;fillColor=#434445;aspect=fixed;labelPosition=center;verticalLabelPosition=bottom;verticalAlign=top;align=center;outlineConnect=0;shape=mxgraph.vvd.web_browser;" vertex="1" parent="1">
          <mxGeometry x="288.86" y="540" width="126.76" height="90" as="geometry" />
        </mxCell>
      </root>
    </mxGraphModel>
  </diagram>
</mxfile>
